C:\Users\israe\Dropbox\PhDWork\ExperimentalData\subject2\145\P2S145W02_filtered35.mot
nRows=10
nColumns=28

name C:\Users\israe\Dropbox\PhDWork\ExperimentalData\subject2\145\P2S145W02_filtered35.mot
datacolumns 28
datarows 10
range 1.1400000000 1.1490000000
endheader
time	ground_force_1_vx	ground_force_1_vy	ground_force_1_vz	ground_force_1_px	ground_force_1_py	ground_force_1_pz	ground_moment_1_mx	ground_moment_1_my	ground_moment_1_mz	ground_force_2_vx	ground_force_2_vy	ground_force_2_vz	ground_force_2_px	ground_force_2_py	ground_force_2_pz	ground_moment_2_mx	ground_moment_2_my	ground_moment_2_mz	ground_force_3_vx	ground_force_3_vy	ground_force_3_vz	ground_force_3_px	ground_force_3_py	ground_force_3_pz	ground_moment_3_mx	ground_moment_3_my	ground_moment_3_mz
        1.1400000000	       19.1868774881	      806.7724863020	      173.8105657049	        0.1988394961	        0.0000558755	       -0.3004071324	      -81.1693145893	      -19.0531035639	       67.7411730458	       -7.4257327252	       79.9171179547	       -8.7399656283	        0.2029003516	       -0.0000795827	        0.4543649445	       -3.6907234748	        0.6563083385	       -0.9803821455	       -0.0000000000	        0.0000000000	       -0.0000000000	        0.2076431971	        0.0000770316	        1.3583900146	       -0.0000000000	        0.0000000000	       -0.0000000000	
        1.1410000000	       17.0735112485	      806.2347780483	      173.1851413260	        0.1988394961	        0.0000558755	       -0.3004071324	      -80.6151455162	      -19.1686614581	       67.8993956309	       -7.4178044463	       75.4053072876	       -7.2785123244	        0.2029003516	       -0.0000795827	        0.4543649445	       -3.4271801751	        0.6539423975	       -0.8922774763	       -0.0000000000	        0.0000000000	       -0.0000000000	        0.2076431971	        0.0000770316	        1.3583900146	       -0.0000000000	        0.0000000000	       -0.0000000000	
        1.1420000000	       14.9534811974	      805.9048343633	      172.5664578864	        0.1988394961	        0.0000558755	       -0.3004071324	      -80.0903747036	      -19.2878184095	       68.0768969540	       -7.3061708070	       71.0758080533	       -5.9989357190	        0.2029003516	       -0.0000795827	        0.4543649445	       -3.1831291599	        0.6573756898	       -0.8153193631	       -0.0000000000	        0.0000000000	       -0.0000000000	        0.2076431971	        0.0000770316	        1.3583900146	       -0.0000000000	        0.0000000000	       -0.0000000000	
        1.1430000000	       12.8262713021	      805.8173255720	      171.9709557288	        0.1988394961	        0.0000558755	       -0.3004071324	      -79.5989121279	      -19.4121621535	       68.2782731866	       -7.1016873146	       66.9351421173	       -4.8515044511	        0.2029003516	       -0.0000795827	        0.4543649445	       -2.9582770903	        0.6667633173	       -0.7498551704	       -0.0000000000	        0.0000000000	       -0.0000000000	        0.2076431971	        0.0000770316	        1.3583900146	       -0.0000000000	        0.0000000000	       -0.0000000000	
        1.1440000000	       10.6944720421	      805.9833304340	      171.4065729535	        0.1988394961	        0.0000558755	       -0.3004071324	      -79.1417016631	      -19.5419782051	       68.5056766766	       -6.8221532765	       62.9987111495	       -3.7855533881	        0.2029003516	       -0.0000795827	        0.4543649445	       -2.7522138953	        0.6818453051	       -0.6954990962	       -0.0000000000	        0.0000000000	       -0.0000000000	        0.2076431971	        0.0000770316	        1.3583900146	       -0.0000000000	        0.0000000000	        0.0000000000	
        1.1450000000	        8.5638248704	      806.3959168055	      170.8740180691	        0.1988394961	        0.0000558755	       -0.3004071324	      -78.7171840113	      -19.6768182979	       68.7589502949	       -6.4887886870	       59.2869266304	       -2.7561857010	        0.2029003516	       -0.0000795827	        0.4543649445	       -2.5646149454	        0.7020898185	       -0.6514540683	       -0.0000000000	        0.0000000000	       -0.0000000000	        0.2076431971	        0.0000770316	        1.3583900146	       -0.0000000000	        0.0000000000	        0.0000000000	
        1.1460000000	        6.4431949600	      807.0369925801	      170.3693921248	        0.1988394961	        0.0000558755	       -0.3004071324	      -78.3219953722	      -19.8159654612	       69.0361778559	       -6.1234051124	       55.8191196418	       -1.7270957963	        0.2029003516	       -0.0000795827	        0.4543649445	       -2.3950793154	        0.7268045606	       -0.6168229244	       -0.0000000000	        0.0000000000	       -0.0000000000	        0.2076431971	        0.0000770316	        1.3583900146	       -0.0000000000	        0.0000000000	        0.0000000000	
        1.1470000000	        4.3441150957	      807.8825056752	      169.8866743084	        0.1988394961	        0.0000558755	       -0.3004071324	      -77.9517194016	      -19.9586154048	       69.3343826690	       -5.7461069120	       52.6083316506	       -0.6717808363	        0.2029003516	       -0.0000795827	        0.4543649445	       -2.2426375538	        0.7551922184	       -0.5907591611	       -0.0000000000	        0.0000000000	       -0.0000000000	        0.2076431971	        0.0000770316	        1.3583900146	       -0.0000000000	        0.0000000000	        0.0000000000	
        1.1480000000	        2.2801341412	      808.9041647487	      169.4193148682	        0.1988394961	        0.0000558755	       -0.3004071324	      -77.6014725147	      -20.1038987654	       69.6500905033	       -5.3740186309	       49.6593222793	        0.4260469962	        0.2029003516	       -0.0000795827	        0.4543649445	       -2.1055545438	        0.7864269278	       -0.5724077828	       -0.0000000000	        0.0000000000	       -0.0000000000	        0.2076431971	        0.0000770316	        1.3583900146	       -0.0000000000	        0.0000000000	        0.0000000000	
        1.1490000000	        0.2657449585	      810.0725459988	      168.9613184609	        0.1988394961	        0.0000558755	       -0.3004071324	      -77.2661237529	      -20.2509638109	       69.9797207198	       -5.0211135004	       46.9711338775	        1.5740063527	        0.2029003516	       -0.0000795827	        0.4543649445	       -1.9816256845	        0.8197221510	       -0.5607808065	       -0.0000000000	        0.0000000000	        0.0000000000	        0.2076431971	        0.0000770316	        1.3583900146	        0.0000000000	        0.0000000000	        0.0000000000	
